<svg width="768" height="462" viewBox="0 0 768 462" fill="none" xmlns="http://www.w3.org/2000/svg">
<g clip-path="url(#clip0_32_19)">
<path fill-rule="evenodd" clip-rule="evenodd" d="M364 1.09001C316.148 3.12401 281.682 8.09401 246 18.105C216.894 26.271 189.493 37.972 171 50.13C159.379 57.77 140.922 75.817 135.58 84.763C123.993 104.165 123.871 125.528 135.238 144.932C137.032 147.994 143.675 155.703 150 162.062C168.935 181.1 187.194 191.698 220.5 202.983C279.824 223.083 329.484 230.847 391.464 229.715C435.581 228.908 469.354 224.242 512.564 212.983C563.948 199.595 592.648 185.489 616.114 162.092C637.776 140.492 643.92 117.244 634.24 93.5C628.911 80.426 613.809 63.532 597.473 52.368C557.972 25.375 490.58 5.64001 422.17 1.03201C405.267 -0.105992 391.824 -0.0929916 364 1.09001ZM356.5 9.60101C301.547 13.048 245.143 27.872 212.587 47.425C164.24 76.462 149.737 110.235 170.761 144.825C181.264 162.106 203.909 180.172 228.366 190.782C256.298 202.9 299.788 214.146 336 218.615C353.414 220.764 393.158 221.541 411.55 220.092C461.792 216.134 518.602 201.854 548 185.794C574.743 171.185 594.646 151.123 601.194 132.173C604.478 122.67 604.467 107.301 601.171 97.757C597.86 88.173 590.669 77.848 580.387 67.915C569.749 57.638 560.2 51.07 544.324 43.11C509.456 25.628 473.292 15.923 426.5 11.49C410.815 10.004 368.35 8.85801 356.5 9.60101ZM367.208 26.071C351.926 28.056 334.492 34.519 326.894 41.016L323.5 43.919L384 43.928C452.22 43.938 448.381 44.546 431.442 36.407C412.362 27.239 388.178 23.347 367.208 26.071ZM293.518 40.062C269.158 49.112 246.384 65.627 235.323 82.267C230.854 88.989 225.041 103.27 225.013 107.595C224.986 111.858 227.784 112.926 238.933 112.913C254.175 112.895 253.753 113.247 262.06 93.602C267.894 79.803 277.873 65.922 292.181 51.702C307.932 36.049 308.093 34.648 293.518 40.062ZM460.017 38.626C460.026 39.107 462.977 41.975 466.575 45C483.015 58.824 497.898 79.513 506.498 100.5C508.527 105.45 510.716 110.055 511.362 110.734C512.868 112.313 530.657 114.186 534.469 113.167C536.062 112.741 538.274 111.174 539.386 109.684C541.231 107.214 541.298 106.562 540.146 102.255C537.324 91.704 524.6 73.02 514.366 64.402C500.984 53.131 474.558 39.043 465.25 38.218C462.363 37.962 460.008 38.146 460.017 38.626ZM258 45.374C224.474 58.32 199.776 78.536 192.132 99.288C188.086 110.271 189.902 113 201.255 113C212.997 113 215.641 110.971 219.504 99C225.532 80.317 238.414 64.923 260.017 50.587C265.544 46.918 269.8 43.486 269.474 42.959C268.584 41.519 267.265 41.796 258 45.374ZM493 42.876C493 43.357 497.087 46.11 502.082 48.993C526.602 63.145 541.389 80.985 546.514 102.601C547.44 106.507 548.509 110.206 548.89 110.822C549.836 112.353 565.213 113.967 569.545 112.99C577.515 111.192 577.885 107.468 571.353 94.82C565.739 83.951 554.774 71.859 543.404 63.999C534.387 57.766 508.003 44.471 501.819 43.045C496.424 41.801 493 41.735 493 42.876ZM313.88 51.348C300.976 54.914 285.785 70.555 275.636 90.725C273.636 94.699 272 98.411 272 98.975C272 99.651 281.827 100 300.889 100C326.978 100 329.971 99.83 331.767 98.25C332.861 97.287 335.381 92.215 337.367 86.979C339.353 81.742 343.919 71.666 347.514 64.587C351.109 57.508 353.926 51.614 353.775 51.488C353.624 51.362 345.625 50.992 336 50.665C323.269 50.233 317.241 50.419 313.88 51.348ZM364.777 52.23C361.808 53.232 357.909 59.075 351.252 72.5C342.731 89.685 340.319 98.141 343.582 99.393C344.452 99.727 362.195 100 383.01 100C424.654 100 424.786 99.981 423.331 94.181C421.152 85.503 407.316 57.585 403.343 53.853C400.996 51.647 400.169 51.543 384.195 51.43C375.013 51.365 366.275 51.725 364.777 52.23ZM412 51.814C412 52.262 415.125 58.821 418.945 66.391C422.764 73.96 427.34 84.209 429.113 89.165C431.622 96.177 432.869 98.38 434.734 99.089C437.351 100.084 494 100.378 494 99.396C494 99.064 492.317 95.577 490.26 91.646C481.785 75.451 463.009 54.207 455.269 52.058C450.859 50.833 412 50.614 412 51.814ZM308 105.995C303.875 106.404 295.519 106.797 289.432 106.869C265.739 107.149 261.434 111.318 257.605 137.685C255.932 149.204 256.632 153.987 260.25 155.772C261.645 156.459 273.392 157.104 291.163 157.467L319.826 158.054L322.663 155.613C325.424 153.238 325.503 152.897 325.595 142.836C325.663 135.395 326.31 130.329 327.905 124.751C332.71 107.946 328.484 103.965 308 105.995ZM381.5 106.924C349.412 107.437 345.142 107.695 342.206 109.299C335.605 112.902 333.734 118.716 332.034 140.902C330.901 155.69 331.234 157 336.122 157C340.098 157 342.592 154.131 343.895 148.056C346.821 134.409 354.58 126.816 369.496 123.001C385.362 118.943 398.328 121.425 409.779 130.711C414.473 134.518 417.857 140.421 420.393 149.226C422.22 155.569 424.25 157.298 429.296 156.81L432.5 156.5L432.371 143C432.236 128.823 429.352 110.913 426.795 108.377C424.839 106.437 420.537 106.299 381.5 106.924ZM437.226 108.683C434.709 111.2 434.803 114.237 437.646 122.376C438.438 124.642 439.023 130.664 439.056 136.876C439.087 142.719 439.65 149.075 440.306 151C442.427 157.217 444.601 157.671 471.145 157.442C506.098 157.139 503.761 157.33 506.545 154.545C509.757 151.334 509.672 149.542 505.457 131.59C501.302 113.894 500.606 111.918 497.504 109.004C495.229 106.867 494.458 106.805 467.357 106.588L439.544 106.365L437.226 108.683ZM195.966 117.922C194.022 118.303 191.885 118.953 191.216 119.366C186.906 122.03 194.154 138.142 205.805 151.798C211.037 157.93 223.054 167.255 232.621 172.605C239.222 176.296 257.98 184.212 263.25 185.529C268.841 186.927 266.047 183.1 257.25 177.311C246.332 170.126 233.456 157.873 227.96 149.439C225.554 145.746 222.551 139.116 220.902 133.853C219.322 128.816 217.313 123.601 216.437 122.264C213.43 117.674 205.652 116.025 195.966 117.922ZM226.906 119.094C225.22 120.78 224.943 121.898 225.484 124.844C227.209 134.239 234.283 147.535 242.417 156.672C247.207 162.053 264.296 176 266.098 176C267.129 176 267.312 170.978 266.371 168.525C266.026 167.625 262.538 164.719 258.621 162.069C254.705 159.419 250.674 156.329 249.665 155.203C246.768 151.97 246.571 146.124 248.936 133.614C251.544 119.822 251.189 118.572 244.401 117.641C235.031 116.357 229.155 116.845 226.906 119.094ZM520.602 117.875C514.746 118.814 514.306 120.29 516.487 131.675C520.395 152.083 518.681 156.835 504.825 164.013C501.703 165.63 498.866 167.847 498.519 168.939C497.877 170.962 499.433 175 500.855 175C502.372 175 512.576 166.877 519.415 160.226C527.49 152.371 532.668 144.78 536.813 134.72C542.762 120.279 542.197 118.474 531.5 117.734C527.65 117.467 522.746 117.531 520.602 117.875ZM551.364 118.23C548.984 119.315 547.011 122.944 546.979 126.297C546.943 130.093 542.509 141.301 538.668 147.305C533.655 155.142 521.14 167.945 509.643 177C504.406 181.125 500.501 184.636 500.966 184.802C502.531 185.361 521.419 177.838 531.203 172.759C548.541 163.758 562.203 151.177 571.253 135.88C575.786 128.218 576.841 123.588 574.859 120.058C573.477 117.596 573.049 117.495 563.461 117.378C557.983 117.31 552.539 117.694 551.364 118.23ZM373.384 129.35C361.592 132.354 354.125 139.647 353.222 149.043C351.536 166.593 371.499 178.685 392.184 172.643C414.931 165.998 417.443 141.067 396.348 131.323C390.027 128.403 380.362 127.573 373.384 129.35ZM365.25 147.098C363.624 147.703 363 148.743 363 150.845C363 154.793 365.333 156.621 368.81 155.398C371.009 154.625 371.5 153.838 371.5 151.09C371.5 147.271 369.027 145.692 365.25 147.098ZM394.338 147.053C388.919 149.101 391.749 157.033 397.394 155.616C400.003 154.961 401.83 151.153 400.538 149.062C399.351 147.141 396.527 146.226 394.338 147.053ZM293.666 163.937C277.537 164.593 277 164.914 277 173.875C277 187.201 288.041 197.444 298.846 194.142C304.427 192.437 313.498 184.669 316.039 179.419C319.757 171.74 317.266 164.711 310.5 163.785C308.85 163.559 301.275 163.627 293.666 163.937ZM335.5 164.403C331.555 166.144 329.541 168.516 326.896 174.537C324.367 180.293 320.026 186.858 315.266 192.127C313.425 194.165 312.275 196.049 312.71 196.314C313.144 196.58 318.763 197.975 325.195 199.415C338.209 202.329 352.914 204.496 366.516 205.506C374.969 206.133 375.655 206.038 377.516 203.983C380.123 201.102 380.293 189.068 377.793 184.433C376.045 181.193 371.1 178.556 364.879 177.546C362.44 177.15 358.918 174.993 354.09 170.939C344.391 162.795 341.469 161.768 335.5 164.403ZM417.895 165.25C415.451 166.488 411.212 169.363 408.476 171.641C405.365 174.23 401.378 176.386 397.837 177.394C388.472 180.059 385.232 185.724 386.225 197.696C386.871 205.486 388.189 206.29 399 205.482C418.99 203.989 452 197.939 452 195.768C452 195.272 449.935 192.331 447.412 189.233C444.889 186.135 441.337 180.653 439.519 177.05C435.746 169.575 432.231 165.419 428.473 163.99C424.647 162.535 422.83 162.751 417.895 165.25ZM452.027 164.63C450.55 165.251 448.757 167.172 448.042 168.898C444.054 178.527 462.07 196.71 473.478 194.57C481.217 193.118 488.403 183.379 488.326 174.448C488.274 168.469 486.779 165.234 483.711 164.464C479.311 163.359 454.74 163.488 452.027 164.63ZM52.92 247.944C47.348 248.968 41.24 251.992 38.363 255.153C32.477 261.617 26.557 279.834 10.486 340.933C5.21504 360.971 1.03704 378.518 1.20104 379.925C1.61104 383.438 5.59604 385.124 13.98 385.331C24.922 385.6 27.905 382.309 32.392 365.019C34.079 358.519 35.54 354.982 37.037 353.769C38.995 352.183 41.79 352 63.988 352C84.376 352 88.967 352.256 89.956 353.446C90.6161 354.242 92.482 359.917 94.102 366.058C97.484 378.871 98.028 380.09 101.629 382.922C103.811 384.64 105.683 385 112.412 385C123.494 385 125.465 383.653 124.686 376.606C124.106 371.36 101.112 285.637 96.558 271.742C90.83 254.267 83.517 248.41 66.347 247.547C61.481 247.303 55.439 247.481 52.92 247.944ZM309.06 248.456C299.786 250.223 293.929 252.406 287.465 256.506C274.284 264.868 269.025 278.163 267.493 307C266.158 332.131 269.373 355.912 275.552 366.617C279.107 372.775 288.142 380.535 294.548 382.932C313.037 389.85 342.818 389.435 358.701 382.039C370.611 376.493 379.314 364.128 382.168 348.699C384.255 337.417 383.943 292.528 381.715 283.686C376.915 264.628 366.36 253.973 347.825 249.478C338.671 247.257 318.187 246.718 309.06 248.456ZM564.5 247.956C554.451 249.623 548.816 253.586 544.528 262C540.584 269.741 512 372.383 512 378.806C512 386.099 523.924 388.165 533.529 382.536C538.637 379.542 538.912 379.112 543.09 367.566C546.531 358.056 550.078 353.634 555.065 352.637C560.522 351.546 593.468 351.918 596.887 353.11C600.742 354.454 603.022 358.614 605.472 368.769C607.404 376.783 610.258 381.785 614.03 383.772C615.638 384.619 619.406 384.973 624.831 384.786C634.742 384.446 636.511 383.086 635.608 376.5C634.969 371.837 617.275 306.486 609.775 281.089C601.619 253.47 597.007 248.753 577 247.57C572.875 247.327 567.25 247.5 564.5 247.956ZM163.209 250.071C155.947 251.014 150.938 253.747 148.123 258.301C144.339 264.424 143.901 272.065 144.207 326.728L144.5 378.956L147.266 381.721C149.732 384.187 150.884 384.525 157.888 384.843C165.442 385.186 165.874 385.084 169.122 382.182L172.5 379.164L172.633 361.484C172.745 346.73 173.032 343.54 174.368 342.204C175.706 340.865 179.12 340.564 195.234 340.366C209.105 340.196 216.159 339.682 220.425 338.532C241.788 332.772 251.192 317.371 249.713 290.568C248.29 264.789 236.928 252.662 211.706 250.005C200.875 248.863 172.203 248.903 163.209 250.071ZM410.378 250.437C403.717 253.336 404 250.605 404 312.044C404 374.285 404.01 374.39 410.717 379.918C416.332 384.547 420.222 385 454.308 385C484.49 385 485.833 384.919 488.341 382.946C491.531 380.437 493.394 374.06 492.54 368.571C491.087 359.227 489.417 358.698 460.676 358.478C437.669 358.303 436.777 358.222 434.676 356.121C432.514 353.961 432.497 353.622 432 304.577C431.527 257.867 431.398 255.095 429.6 253.109C426.062 249.202 416.326 247.848 410.378 250.437ZM674.5 249.898C665.251 251.085 661.302 253.644 657.371 261C655.606 264.302 655.5 267.734 655.5 321.726V378.953L658.273 381.726C660.866 384.321 661.593 384.5 669.5 384.5C677.404 384.5 678.135 384.32 680.727 381.73L683.5 378.96L684 359.129C684.372 344.387 684.852 338.876 685.872 337.649C687.992 335.103 698.92 335.363 702.325 338.041C704.565 339.803 714.442 354.194 725.804 372.249C731.596 381.453 738.584 385 750.927 385C759.681 385 763.534 383.257 762.435 379.795C762.08 378.675 755.435 368.06 747.669 356.205C739.516 343.76 734.044 334.485 734.72 334.26C737.941 333.186 747.952 325.837 751.365 322.04C753.49 319.675 756.415 315.211 757.865 312.12C760.309 306.907 760.493 305.558 760.409 293.5C760.335 282.941 759.924 279.424 758.219 274.767C753.723 262.489 745.402 254.652 733.5 251.484C726.691 249.672 684.994 248.55 674.5 249.898ZM60.465 272.961C56.979 274.358 56.061 276.338 51.449 292.403C45.592 312.807 43.787 320.754 44.5 322.999C45.468 326.049 50.586 327 66.027 327C77.749 327 81.004 326.701 81.972 325.534C82.949 324.356 82.17 320.268 78.015 304.784C71.277 279.671 70.252 276.529 68.209 274.736C65.856 272.671 62.886 271.991 60.465 272.961ZM568.641 274.274C565.812 276.341 554.424 318.379 555.499 322.785C555.805 324.042 557.198 325.505 558.593 326.035C561.74 327.232 589.994 327.29 591.866 326.104C593.846 324.849 593.076 320.309 587.119 298.104C581.917 278.717 580.666 275.145 578.6 273.765C576.817 272.574 570.525 272.895 568.641 274.274ZM311.115 275.461C308.704 276.235 305.204 278.348 303.338 280.157C297.92 285.408 296.805 290.664 296.258 313.539C295.743 335.016 296.67 344.806 299.788 350.838C304.239 359.449 318.27 363.44 334.342 360.667C344.716 358.877 348.664 356.351 352.148 349.277C354.382 344.74 354.516 343.312 354.828 320.831C355.27 288.993 353.288 281.349 343.306 276.391C338.32 273.914 317.786 273.321 311.115 275.461ZM175.739 277.991L173 280.145V294.573C173 314.383 173.152 314.507 196.699 313.842C210.867 313.443 215.569 311.964 219.419 306.699C222.447 302.558 222.887 290.793 220.238 284.805C217.088 277.684 213.789 276.579 194.489 276.173C179.34 275.854 178.331 275.952 175.739 277.991ZM685.994 278.735C684.018 281.247 683.87 282.431 684.172 293.325C684.474 304.23 684.682 305.328 686.764 307.012C691.482 310.828 718.824 311.039 725.21 307.309C730.155 304.421 732.511 299.58 732.418 292.5C732.313 284.605 730.074 280.391 724.684 277.943C721.134 276.332 718.048 276.041 704.323 276.022L688.145 276L685.994 278.735ZM500.185 405.989C496.054 406.967 492.215 410.43 490.195 415C488.18 419.561 487.215 449.093 488.914 454.24C490.562 459.232 493.162 460 508.425 460C522.401 460 524.598 459.34 523.833 455.37C523.37 452.968 518.908 451.975 509.21 452.117C499.081 452.264 497 450.961 497 444.467C497 438.504 498.563 437.591 509.794 437C517.397 436.6 519.512 436.151 520.391 434.75C521.189 433.478 521.189 432.522 520.391 431.25C519.5 429.831 517.367 429.406 509.106 429C497.959 428.453 497.042 427.946 497.015 422.321C496.989 416.91 498.877 416 510.137 416C520.824 416 524 415.081 524 411.988C524 409.187 520.427 407.263 513 406.064C505.71 404.888 504.861 404.883 500.185 405.989ZM12.24 408.11C4.33104 412.025 0.759043 419.861 0.667043 433.5C0.634043 438.45 1.14404 444.345 1.80104 446.599C5.53404 459.407 16.317 464.837 29.26 460.427C35.315 458.364 36.661 456.745 35.124 453.372C34.26 451.476 33.502 450.997 32.227 451.541C28.784 453.01 19.019 453.251 15.863 451.943C6.58704 448.101 6.13104 421.086 15.263 416.364C18.243 414.823 24.877 414.927 31.626 416.621C33.204 417.017 34.155 416.579 34.953 415.088C36.714 411.798 34.658 409.273 28.801 407.534C21.788 405.451 17.297 405.607 12.24 408.11ZM129.352 407.092C124.929 408.374 120.336 414.036 118.446 420.538C117.248 424.657 116.923 429.23 117.169 438.465C117.548 452.661 118.415 454.657 126.089 458.992C135.945 464.561 152.421 460.768 157.184 451.834C159.229 447.999 159.487 446.176 159.426 436C159.35 423.3 157.19 415.406 152.614 411.107C148.278 407.034 136.545 405.009 129.352 407.092ZM384.748 407.427C379.326 409.362 374.56 413.324 372.399 417.694C370.085 422.374 369.168 441.28 370.965 447.276C372.54 452.536 378.219 458.536 383.546 460.571C388.617 462.507 395.435 462.171 401.25 459.697C404.408 458.354 405 457.623 405 455.07V452.037L394.924 452.269C385.064 452.495 384.797 452.441 382.488 449.769C379.542 446.359 378.578 440.244 379.261 429.298C379.696 422.323 380.184 420.433 382.068 418.427C384.199 416.16 385.032 416 394.741 416H405.133L404.816 413.25C404.573 411.134 403.471 409.981 400.038 408.25C395.01 405.714 390.262 405.459 384.748 407.427ZM246.543 409.366C243.404 412.505 242.767 418.245 243.174 439.717C243.451 454.356 243.757 457.19 245.213 458.644C246.629 460.058 247.366 460.154 249.463 459.199L252 458.043V437.021C252 409.229 253.296 409.038 260.917 435.709C267.605 459.115 268.765 461 276.48 461C278.988 461 280.846 460.245 282.564 458.527L285.036 456.055L284.768 432.277L284.5 408.5H281H277.5L277 429.918C276.3 459.92 276.279 459.908 265.608 423.626C261.452 409.497 259.601 407 253.28 407C250.017 407 248.309 407.6 246.543 409.366ZM614.625 408.469C612.493 409.229 610.243 410.356 609.625 410.975C608.857 411.743 608.5 419.395 608.5 435.086C608.5 458.697 608.705 459.969 612.5 459.969C615.505 459.969 616.467 457.916 616.483 451.466C616.505 442.943 617.64 442 627.875 442C642.053 442 647 437.489 647 424.561C647 415.226 645.557 412.634 638.542 409.367C632.633 406.616 621.045 406.181 614.625 408.469ZM728.571 408.571C724.731 412.412 728.052 416 735.449 416C739.008 416 741.176 416.507 742.034 417.541C742.984 418.685 743.258 423.537 743.098 436.382C742.849 456.314 743.229 458.768 746.695 459.638C751.617 460.874 752.091 459.062 752.304 438.196C752.532 415.926 752.74 415.373 760.764 415.683C766.135 415.891 768 414.775 768 411.353C768 407.681 764.639 407 746.506 407C732.964 407 729.872 407.271 728.571 408.571ZM132.27 415.703C131.043 415.94 129.131 417.289 128.02 418.702C126.232 420.975 126 422.742 126 434.079C126 446.081 126.148 447.061 128.349 449.62C130.323 451.915 131.685 452.422 136.885 452.798C143.876 453.304 146.215 452.007 148.638 446.282C150.293 442.372 150.501 422.805 148.92 419.85C146.903 416.081 139.657 414.276 132.27 415.703ZM618.573 417.57C615.016 421.127 615.444 429.936 619.297 432.456C620.618 433.32 623.302 433.78 626 433.604C628.475 433.442 631.513 433.24 632.75 433.155C638.898 432.731 641.345 423.254 636.545 418.455C634.409 416.318 633.188 416 627.117 416C622.113 416 619.699 416.444 618.573 417.57Z" fill="white"/>
</g>
<defs>
<clipPath id="clip0_32_19">
<rect width="768" height="462" fill="white"/>
</clipPath>
</defs>
</svg>
